<mxfile host="Electron" agent="Mozilla/5.0 (X11; Linux x86_64) AppleWebKit/537.36 (KHTML, like Gecko) draw.io/24.7.8 Chrome/128.0.6613.162 Electron/32.1.2 Safari/537.36" version="24.7.8">
  <diagram id="C5RBs43oDa-KdzZeNtuy" name="Page-1">
    <mxGraphModel dx="1434" dy="850" grid="1" gridSize="10" guides="1" tooltips="1" connect="1" arrows="1" fold="1" page="1" pageScale="1" pageWidth="1169" pageHeight="827" math="0" shadow="0">
      <root>
        <mxCell id="WIyWlLk6GJQsqaUBKTNV-0" />
        <mxCell id="WIyWlLk6GJQsqaUBKTNV-1" parent="WIyWlLk6GJQsqaUBKTNV-0" />
        <mxCell id="orKfnWybVY6OIfr_CMh5-2" value="Heeft" style="rhombus;whiteSpace=wrap;html=1;" parent="WIyWlLk6GJQsqaUBKTNV-1" vertex="1">
          <mxGeometry x="544" y="199" width="120" height="80" as="geometry" />
        </mxCell>
        <mxCell id="orKfnWybVY6OIfr_CMh5-4" value="Reserveert" style="rhombus;whiteSpace=wrap;html=1;" parent="WIyWlLk6GJQsqaUBKTNV-1" vertex="1">
          <mxGeometry x="545" y="339" width="120" height="80" as="geometry" />
        </mxCell>
        <mxCell id="orKfnWybVY6OIfr_CMh5-5" value="" style="endArrow=none;html=1;rounded=0;" parent="WIyWlLk6GJQsqaUBKTNV-1" source="4Xx-Y_77534VWpwhhw6w-5" target="orKfnWybVY6OIfr_CMh5-2" edge="1">
          <mxGeometry width="50" height="50" relative="1" as="geometry">
            <mxPoint x="435" y="283.3478260869565" as="sourcePoint" />
            <mxPoint x="625" y="259" as="targetPoint" />
          </mxGeometry>
        </mxCell>
        <mxCell id="orKfnWybVY6OIfr_CMh5-6" value="" style="endArrow=none;html=1;rounded=0;" parent="WIyWlLk6GJQsqaUBKTNV-1" source="orKfnWybVY6OIfr_CMh5-51" target="orKfnWybVY6OIfr_CMh5-2" edge="1">
          <mxGeometry width="50" height="50" relative="1" as="geometry">
            <mxPoint x="775" y="283.3478260869565" as="sourcePoint" />
            <mxPoint x="625" y="259" as="targetPoint" />
          </mxGeometry>
        </mxCell>
        <mxCell id="orKfnWybVY6OIfr_CMh5-7" value="" style="endArrow=none;html=1;rounded=0;" parent="WIyWlLk6GJQsqaUBKTNV-1" source="4Xx-Y_77534VWpwhhw6w-5" target="orKfnWybVY6OIfr_CMh5-4" edge="1">
          <mxGeometry width="50" height="50" relative="1" as="geometry">
            <mxPoint x="435" y="319.86956521739125" as="sourcePoint" />
            <mxPoint x="625" y="259" as="targetPoint" />
          </mxGeometry>
        </mxCell>
        <mxCell id="orKfnWybVY6OIfr_CMh5-8" value="" style="endArrow=none;html=1;rounded=0;" parent="WIyWlLk6GJQsqaUBKTNV-1" source="orKfnWybVY6OIfr_CMh5-4" target="orKfnWybVY6OIfr_CMh5-51" edge="1">
          <mxGeometry width="50" height="50" relative="1" as="geometry">
            <mxPoint x="575" y="309" as="sourcePoint" />
            <mxPoint x="775" y="319.86956521739125" as="targetPoint" />
          </mxGeometry>
        </mxCell>
        <mxCell id="orKfnWybVY6OIfr_CMh5-9" value="&lt;font style=&quot;font-size: 11px;&quot;&gt;(1..1)&lt;/font&gt;" style="text;html=1;align=center;verticalAlign=middle;whiteSpace=wrap;rounded=0;rotation=-14;" parent="WIyWlLk6GJQsqaUBKTNV-1" vertex="1">
          <mxGeometry x="441" y="262" width="20" height="20" as="geometry" />
        </mxCell>
        <mxCell id="orKfnWybVY6OIfr_CMh5-11" value="&lt;font style=&quot;font-size: 11px;&quot;&gt;(0..N)&lt;/font&gt;" style="text;html=1;align=center;verticalAlign=middle;whiteSpace=wrap;rounded=0;rotation=15;" parent="WIyWlLk6GJQsqaUBKTNV-1" vertex="1">
          <mxGeometry x="750" y="262" width="20" height="20" as="geometry" />
        </mxCell>
        <mxCell id="orKfnWybVY6OIfr_CMh5-12" value="&lt;font style=&quot;font-size: 11px;&quot;&gt;(0..N)&lt;/font&gt;" style="text;html=1;align=center;verticalAlign=middle;whiteSpace=wrap;rounded=0;rotation=18;" parent="WIyWlLk6GJQsqaUBKTNV-1" vertex="1">
          <mxGeometry x="442" y="308" width="20" height="20" as="geometry" />
        </mxCell>
        <mxCell id="orKfnWybVY6OIfr_CMh5-13" value="&lt;font style=&quot;font-size: 11px;&quot;&gt;(0..M)&lt;/font&gt;" style="text;html=1;align=center;verticalAlign=middle;whiteSpace=wrap;rounded=0;rotation=-22;" parent="WIyWlLk6GJQsqaUBKTNV-1" vertex="1">
          <mxGeometry x="749" y="323" width="20" height="20" as="geometry" />
        </mxCell>
        <mxCell id="orKfnWybVY6OIfr_CMh5-14" value="Boete" style="shape=ext;margin=3;double=1;whiteSpace=wrap;html=1;align=center;" parent="WIyWlLk6GJQsqaUBKTNV-1" vertex="1">
          <mxGeometry x="555" y="509" width="100" height="40" as="geometry" />
        </mxCell>
        <mxCell id="orKfnWybVY6OIfr_CMh5-16" value="" style="endArrow=none;html=1;rounded=0;" parent="WIyWlLk6GJQsqaUBKTNV-1" source="orKfnWybVY6OIfr_CMh5-4" target="orKfnWybVY6OIfr_CMh5-14" edge="1">
          <mxGeometry relative="1" as="geometry">
            <mxPoint x="295" y="529" as="sourcePoint" />
            <mxPoint x="455" y="529" as="targetPoint" />
          </mxGeometry>
        </mxCell>
        <mxCell id="orKfnWybVY6OIfr_CMh5-19" value="Gebruikersnaam" style="ellipse;whiteSpace=wrap;html=1;align=center;" parent="WIyWlLk6GJQsqaUBKTNV-1" vertex="1">
          <mxGeometry x="215" y="585" width="100" height="40" as="geometry" />
        </mxCell>
        <mxCell id="orKfnWybVY6OIfr_CMh5-20" value="E-mail" style="ellipse;whiteSpace=wrap;html=1;align=center;" parent="WIyWlLk6GJQsqaUBKTNV-1" vertex="1">
          <mxGeometry x="295" y="199" width="100" height="40" as="geometry" />
        </mxCell>
        <mxCell id="orKfnWybVY6OIfr_CMh5-21" value="Telefoonnummer" style="ellipse;whiteSpace=wrap;html=1;align=center;" parent="WIyWlLk6GJQsqaUBKTNV-1" vertex="1">
          <mxGeometry x="195" y="229" width="100" height="40" as="geometry" />
        </mxCell>
        <mxCell id="orKfnWybVY6OIfr_CMh5-22" value="Locatie" style="ellipse;whiteSpace=wrap;html=1;align=center;" parent="WIyWlLk6GJQsqaUBKTNV-1" vertex="1">
          <mxGeometry x="185" y="288" width="100" height="40" as="geometry" />
        </mxCell>
        <mxCell id="orKfnWybVY6OIfr_CMh5-23" value="Wachtwoord" style="ellipse;whiteSpace=wrap;html=1;align=center;" parent="WIyWlLk6GJQsqaUBKTNV-1" vertex="1">
          <mxGeometry x="125" y="509" width="100" height="40" as="geometry" />
        </mxCell>
        <mxCell id="orKfnWybVY6OIfr_CMh5-24" value="" style="endArrow=none;html=1;rounded=0;" parent="WIyWlLk6GJQsqaUBKTNV-1" source="4Xx-Y_77534VWpwhhw6w-5" target="orKfnWybVY6OIfr_CMh5-22" edge="1">
          <mxGeometry relative="1" as="geometry">
            <mxPoint x="465" y="149" as="sourcePoint" />
            <mxPoint x="455" y="269" as="targetPoint" />
          </mxGeometry>
        </mxCell>
        <mxCell id="orKfnWybVY6OIfr_CMh5-25" value="" style="endArrow=none;html=1;rounded=0;" parent="WIyWlLk6GJQsqaUBKTNV-1" source="4Xx-Y_77534VWpwhhw6w-5" target="orKfnWybVY6OIfr_CMh5-21" edge="1">
          <mxGeometry relative="1" as="geometry">
            <mxPoint x="425" y="144.71428571428567" as="sourcePoint" />
            <mxPoint x="465" y="279" as="targetPoint" />
          </mxGeometry>
        </mxCell>
        <mxCell id="orKfnWybVY6OIfr_CMh5-26" value="" style="endArrow=none;html=1;rounded=0;" parent="WIyWlLk6GJQsqaUBKTNV-1" source="4Xx-Y_77534VWpwhhw6w-5" target="orKfnWybVY6OIfr_CMh5-20" edge="1">
          <mxGeometry relative="1" as="geometry">
            <mxPoint x="425" y="122.52941176470586" as="sourcePoint" />
            <mxPoint x="475" y="289" as="targetPoint" />
          </mxGeometry>
        </mxCell>
        <mxCell id="orKfnWybVY6OIfr_CMh5-27" value="" style="endArrow=none;html=1;rounded=0;" parent="WIyWlLk6GJQsqaUBKTNV-1" source="orKfnWybVY6OIfr_CMh5-49" target="orKfnWybVY6OIfr_CMh5-19" edge="1">
          <mxGeometry relative="1" as="geometry">
            <mxPoint x="285" y="509" as="sourcePoint" />
            <mxPoint x="345" y="705" as="targetPoint" />
          </mxGeometry>
        </mxCell>
        <mxCell id="orKfnWybVY6OIfr_CMh5-28" value="" style="endArrow=none;html=1;rounded=0;" parent="WIyWlLk6GJQsqaUBKTNV-1" source="orKfnWybVY6OIfr_CMh5-49" target="orKfnWybVY6OIfr_CMh5-23" edge="1">
          <mxGeometry relative="1" as="geometry">
            <mxPoint x="311.25" y="495" as="sourcePoint" />
            <mxPoint x="355" y="715" as="targetPoint" />
          </mxGeometry>
        </mxCell>
        <mxCell id="orKfnWybVY6OIfr_CMh5-33" value="Prijs" style="ellipse;whiteSpace=wrap;html=1;align=center;" parent="WIyWlLk6GJQsqaUBKTNV-1" vertex="1">
          <mxGeometry x="855" y="353" width="100" height="40" as="geometry" />
        </mxCell>
        <mxCell id="orKfnWybVY6OIfr_CMh5-34" value="Locatie" style="ellipse;whiteSpace=wrap;html=1;align=center;" parent="WIyWlLk6GJQsqaUBKTNV-1" vertex="1">
          <mxGeometry x="925" y="313" width="100" height="40" as="geometry" />
        </mxCell>
        <mxCell id="orKfnWybVY6OIfr_CMh5-35" value="Beschrijving" style="ellipse;whiteSpace=wrap;html=1;align=center;" parent="WIyWlLk6GJQsqaUBKTNV-1" vertex="1">
          <mxGeometry x="945" y="262" width="100" height="40" as="geometry" />
        </mxCell>
        <mxCell id="orKfnWybVY6OIfr_CMh5-36" value="Naam" style="ellipse;whiteSpace=wrap;html=1;align=center;" parent="WIyWlLk6GJQsqaUBKTNV-1" vertex="1">
          <mxGeometry x="915" y="209" width="100" height="40" as="geometry" />
        </mxCell>
        <mxCell id="orKfnWybVY6OIfr_CMh5-37" value="" style="endArrow=none;html=1;rounded=0;" parent="WIyWlLk6GJQsqaUBKTNV-1" source="orKfnWybVY6OIfr_CMh5-33" target="orKfnWybVY6OIfr_CMh5-51" edge="1">
          <mxGeometry relative="1" as="geometry">
            <mxPoint x="715" y="478.71000000000004" as="sourcePoint" />
            <mxPoint x="863.3783783783783" y="329" as="targetPoint" />
          </mxGeometry>
        </mxCell>
        <mxCell id="orKfnWybVY6OIfr_CMh5-38" value="" style="endArrow=none;html=1;rounded=0;" parent="WIyWlLk6GJQsqaUBKTNV-1" source="orKfnWybVY6OIfr_CMh5-35" target="orKfnWybVY6OIfr_CMh5-51" edge="1">
          <mxGeometry relative="1" as="geometry">
            <mxPoint x="695" y="459" as="sourcePoint" />
            <mxPoint x="895" y="292.625" as="targetPoint" />
          </mxGeometry>
        </mxCell>
        <mxCell id="orKfnWybVY6OIfr_CMh5-39" value="" style="endArrow=none;html=1;rounded=0;" parent="WIyWlLk6GJQsqaUBKTNV-1" source="orKfnWybVY6OIfr_CMh5-34" target="orKfnWybVY6OIfr_CMh5-51" edge="1">
          <mxGeometry relative="1" as="geometry">
            <mxPoint x="685" y="419" as="sourcePoint" />
            <mxPoint x="895" y="313.57142857142856" as="targetPoint" />
          </mxGeometry>
        </mxCell>
        <mxCell id="orKfnWybVY6OIfr_CMh5-40" value="" style="endArrow=none;html=1;rounded=0;" parent="WIyWlLk6GJQsqaUBKTNV-1" source="orKfnWybVY6OIfr_CMh5-51" target="orKfnWybVY6OIfr_CMh5-36" edge="1">
          <mxGeometry relative="1" as="geometry">
            <mxPoint x="890.7142857142858" y="269" as="sourcePoint" />
            <mxPoint x="855" y="339" as="targetPoint" />
          </mxGeometry>
        </mxCell>
        <mxCell id="orKfnWybVY6OIfr_CMh5-43" value="Tot" style="ellipse;whiteSpace=wrap;html=1;align=center;" parent="WIyWlLk6GJQsqaUBKTNV-1" vertex="1">
          <mxGeometry x="645" y="409" width="100" height="40" as="geometry" />
        </mxCell>
        <mxCell id="orKfnWybVY6OIfr_CMh5-44" value="Van" style="ellipse;whiteSpace=wrap;html=1;align=center;" parent="WIyWlLk6GJQsqaUBKTNV-1" vertex="1">
          <mxGeometry x="465" y="409" width="100" height="40" as="geometry" />
        </mxCell>
        <mxCell id="orKfnWybVY6OIfr_CMh5-45" value="" style="endArrow=none;html=1;rounded=0;" parent="WIyWlLk6GJQsqaUBKTNV-1" source="orKfnWybVY6OIfr_CMh5-43" target="orKfnWybVY6OIfr_CMh5-4" edge="1">
          <mxGeometry relative="1" as="geometry">
            <mxPoint x="555" y="469" as="sourcePoint" />
            <mxPoint x="715" y="469" as="targetPoint" />
          </mxGeometry>
        </mxCell>
        <mxCell id="orKfnWybVY6OIfr_CMh5-47" value="" style="endArrow=none;html=1;rounded=0;" parent="WIyWlLk6GJQsqaUBKTNV-1" source="orKfnWybVY6OIfr_CMh5-44" target="orKfnWybVY6OIfr_CMh5-4" edge="1">
          <mxGeometry relative="1" as="geometry">
            <mxPoint x="555" y="469" as="sourcePoint" />
            <mxPoint x="715" y="469" as="targetPoint" />
          </mxGeometry>
        </mxCell>
        <mxCell id="orKfnWybVY6OIfr_CMh5-49" value="Gebruiker" style="whiteSpace=wrap;html=1;align=center;" parent="WIyWlLk6GJQsqaUBKTNV-1" vertex="1">
          <mxGeometry x="245" y="509" width="100" height="40" as="geometry" />
        </mxCell>
        <mxCell id="orKfnWybVY6OIfr_CMh5-51" value="Object" style="whiteSpace=wrap;html=1;align=center;" parent="WIyWlLk6GJQsqaUBKTNV-1" vertex="1">
          <mxGeometry x="775" y="279" width="100" height="40" as="geometry" />
        </mxCell>
        <mxCell id="4Xx-Y_77534VWpwhhw6w-1" value="Hoeveelheid" style="ellipse;whiteSpace=wrap;html=1;align=center;" parent="WIyWlLk6GJQsqaUBKTNV-1" vertex="1">
          <mxGeometry x="555" y="589" width="100" height="40" as="geometry" />
        </mxCell>
        <mxCell id="4Xx-Y_77534VWpwhhw6w-4" value="" style="endArrow=none;html=1;rounded=0;" parent="WIyWlLk6GJQsqaUBKTNV-1" source="orKfnWybVY6OIfr_CMh5-14" target="4Xx-Y_77534VWpwhhw6w-1" edge="1">
          <mxGeometry relative="1" as="geometry">
            <mxPoint x="425" y="399" as="sourcePoint" />
            <mxPoint x="585" y="399" as="targetPoint" />
          </mxGeometry>
        </mxCell>
        <mxCell id="4Xx-Y_77534VWpwhhw6w-5" value="Profiel" style="whiteSpace=wrap;html=1;align=center;" parent="WIyWlLk6GJQsqaUBKTNV-1" vertex="1">
          <mxGeometry x="325" y="279" width="100" height="40" as="geometry" />
        </mxCell>
        <mxCell id="4Xx-Y_77534VWpwhhw6w-6" value="Heeft" style="shape=rhombus;perimeter=rhombusPerimeter;whiteSpace=wrap;html=1;align=center;" parent="WIyWlLk6GJQsqaUBKTNV-1" vertex="1">
          <mxGeometry x="275" y="389" width="120" height="60" as="geometry" />
        </mxCell>
        <mxCell id="4Xx-Y_77534VWpwhhw6w-8" value="" style="endArrow=none;html=1;rounded=0;" parent="WIyWlLk6GJQsqaUBKTNV-1" source="4Xx-Y_77534VWpwhhw6w-6" target="4Xx-Y_77534VWpwhhw6w-5" edge="1">
          <mxGeometry relative="1" as="geometry">
            <mxPoint x="285" y="449" as="sourcePoint" />
            <mxPoint x="445" y="449" as="targetPoint" />
          </mxGeometry>
        </mxCell>
        <mxCell id="4Xx-Y_77534VWpwhhw6w-9" value="" style="endArrow=none;html=1;rounded=0;" parent="WIyWlLk6GJQsqaUBKTNV-1" source="orKfnWybVY6OIfr_CMh5-49" target="4Xx-Y_77534VWpwhhw6w-6" edge="1">
          <mxGeometry relative="1" as="geometry">
            <mxPoint x="285" y="449" as="sourcePoint" />
            <mxPoint x="445" y="449" as="targetPoint" />
          </mxGeometry>
        </mxCell>
        <mxCell id="4Xx-Y_77534VWpwhhw6w-10" value="&lt;font style=&quot;font-size: 11px;&quot;&gt;(1..1)&lt;/font&gt;" style="text;html=1;align=center;verticalAlign=middle;whiteSpace=wrap;rounded=0;rotation=0;" parent="WIyWlLk6GJQsqaUBKTNV-1" vertex="1">
          <mxGeometry x="311" y="490" width="20" height="20" as="geometry" />
        </mxCell>
        <mxCell id="4Xx-Y_77534VWpwhhw6w-11" value="&lt;font style=&quot;font-size: 11px;&quot;&gt;(1..1)&lt;/font&gt;" style="text;html=1;align=center;verticalAlign=middle;whiteSpace=wrap;rounded=0;rotation=0;" parent="WIyWlLk6GJQsqaUBKTNV-1" vertex="1">
          <mxGeometry x="371" y="316" width="20" height="20" as="geometry" />
        </mxCell>
      </root>
    </mxGraphModel>
  </diagram>
</mxfile>
